<svg width="113" height="113" viewBox="0 0 113 113" fill="none" xmlns="http://www.w3.org/2000/svg">
<rect width="113" height="113" rx="7" fill="#3D69BE"/>
<path d="M30.8 51.75C29.3 51.75 27.9167 51.5167 26.65 51.05C25.4167 50.6167 24.2167 49.9 23.05 48.9V46.85C25.15 49.15 27.7667 50.3 30.9 50.3C33.7667 50.3 36 49.4167 37.6 47.65C39.2 45.85 40 43.2 40 39.7V14.95H30.75V13.5H41.65V39.5C41.65 43.5 40.6833 46.55 38.75 48.65C36.8167 50.7167 34.1667 51.75 30.8 51.75ZM67.434 52C63.934 52 60.684 51.0833 57.684 49.25C54.684 47.4167 52.3007 44.9833 50.534 41.95C48.8007 38.8833 47.934 35.6 47.934 32.1C47.934 28.6333 48.8173 25.4 50.584 22.4C52.3507 19.3667 54.734 16.9667 57.734 15.2C60.734 13.4 63.984 12.5 67.484 12.5C71.0173 12.5 74.2673 13.3833 77.234 15.15C80.2007 16.9167 82.5507 19.3167 84.284 22.35C86.0507 25.35 86.934 28.6 86.934 32.1C86.934 35.7 86.0507 39.0333 84.284 42.1C82.5507 45.1333 80.184 47.55 77.184 49.35C74.2173 51.1167 70.9673 52 67.434 52ZM67.434 50.55C70.634 50.55 73.6007 49.7333 76.334 48.1C79.0673 46.4333 81.234 44.2 82.834 41.4C84.4673 38.5667 85.284 35.5 85.284 32.2C85.284 28.9333 84.484 25.9 82.884 23.1C81.284 20.3 79.1173 18.0833 76.384 16.45C73.6507 14.7833 70.684 13.95 67.484 13.95C64.2507 13.95 61.2673 14.7833 58.534 16.45C55.8007 18.0833 53.6173 20.3 51.984 23.1C50.384 25.9 49.584 28.9333 49.584 32.2C49.584 35.5 50.384 38.5667 51.984 41.4C53.6173 44.2 55.8007 46.4333 58.534 48.1C61.2673 49.7333 64.234 50.55 67.434 50.55ZM25.95 61.5H27.55C30.1833 61.5 32.1167 62.1167 33.35 63.35C34.5833 64.55 35.2 66.3333 35.2 68.7C35.2 70.0667 34.8 71.3833 34 72.65C33.2 73.8833 32.2333 74.7167 31.1 75.15C33.9667 75.6167 36.1833 76.8167 37.75 78.75C39.3167 80.6833 40.1 83.2167 40.1 86.35C40.1 88.85 39.55 91.0667 38.45 93C37.35 94.9 35.8333 96.3833 33.9 97.45C32 98.4833 29.8833 99 27.55 99H25.95V61.5ZM27.95 74.7C29.55 74.7 30.9 74.1167 32 72.95C33.1 71.7833 33.65 70.35 33.65 68.65C33.65 66.75 33.1833 65.3167 32.25 64.35C31.35 63.3833 29.9167 62.9 27.95 62.9H27.55V74.7H27.95ZM27.95 97.6C29.9167 97.6 31.7 97.1333 33.3 96.2C34.9 95.2333 36.1667 93.9 37.1 92.2C38.0333 90.5 38.5 88.5833 38.5 86.45C38.5 83.0167 37.5833 80.4333 35.75 78.7C33.95 76.9333 31.35 76.05 27.95 76.05H27.55V97.6H27.95ZM49.616 61.5H63.066V62.95H51.266V83.35H61.116V84.8H51.266V97.55H63.066V99H49.616V61.5ZM71.8172 61.5H73.9672C77.8672 61.5 80.8672 62.5333 82.9672 64.6C85.1005 66.6667 86.1672 69.6167 86.1672 73.45C86.1672 75.65 85.6339 77.6667 84.5672 79.5C83.5339 81.3333 82.1172 82.7833 80.3172 83.85C78.5172 84.8833 76.5339 85.4 74.3672 85.4H74.0172L86.9172 99H84.7672L73.4172 87.1V99H71.8172V61.5ZM74.3172 83.95C76.2172 83.95 77.9505 83.4833 79.5172 82.55C81.0839 81.6167 82.3172 80.3667 83.2172 78.8C84.1172 77.2 84.5672 75.4333 84.5672 73.5C84.5672 70.1333 83.6505 67.5333 81.8172 65.7C80.0172 63.8667 77.4339 62.95 74.0672 62.95H73.4172V83.95H74.3172Z" fill="white"/>
<circle cx="94.5" cy="95.5" r="3.5" fill="#E2C219"/>
</svg>
